<svg width="160" height="79" viewBox="0 0 160 79" fill="none" xmlns="http://www.w3.org/2000/svg">
<path d="M69.6679 50.8123C73.54 52.3333 75.4761 56.7806 73.1914 60.2574C69.6394 65.6628 64.76 70.1574 58.9528 73.2971C50.8914 77.6556 41.5408 79.1337 32.4943 77.4793C23.4478 75.8249 15.2652 71.1405 9.34057 64.2243C3.41599 57.308 0.116042 48.5879 0.00300122 39.5496C-0.11004 30.5113 2.97082 21.7141 8.72064 14.657C14.4705 7.59986 22.5335 2.71942 31.5359 0.847237C40.5382 -1.02495 49.923 0.226956 58.091 4.38965C63.9751 7.38835 68.9655 11.7639 72.6517 17.0822C75.0219 20.5018 73.1955 24.9962 69.3609 26.6109C65.5958 28.1964 61.3256 26.35 58.6479 23.2647C56.5846 20.8873 54.06 18.9044 51.1957 17.4447C46.1025 14.849 40.2505 14.0683 34.637 15.2358C29.0235 16.4032 23.9958 19.4464 20.4104 23.8469C16.8251 28.2475 14.904 33.733 14.9745 39.3689C15.045 45.0048 17.1027 50.4423 20.797 54.755C24.4913 59.0677 29.5937 61.9887 35.2347 63.0203C40.8757 64.0519 46.7063 63.1302 51.7331 60.4124C54.5571 58.8856 57.0292 56.845 59.0313 54.4219C61.6354 51.2701 65.8625 49.3175 69.6679 50.8123Z" fill="white"/>
<rect x="75.7062" y="15.9835" width="13.1073" height="44.3973" rx="6.55367" fill="#9568FF"/>
<rect x="94.9153" y="15.9835" width="13.1073" height="44.3973" rx="6.55367" fill="#9568FF"/>
<rect x="111.638" y="15.9835" width="13.1073" height="44.3973" rx="6.55367" fill="#9568FF"/>
<path d="M130.848 2.6637H143.955V71.5854C143.955 75.2049 141.021 78.1391 137.401 78.1391C133.782 78.1391 130.848 75.2049 130.848 71.5854V2.6637Z" fill="white"/>
<rect x="75.7062" y="12.875" width="12.8752" height="84.2938" rx="6.43761" transform="rotate(-90 75.7062 12.875)" fill="white"/>
<rect x="78.6442" y="44.619" width="12.8752" height="26.4407" transform="rotate(-90 78.6442 44.619)" fill="#9568FF"/>
</svg>
