<svg width="21" height="13" viewBox="0 0 21 13" fill="none" xmlns="http://www.w3.org/2000/svg">
<path fill-rule="evenodd" clip-rule="evenodd" d="M0 6.5C1.93582 2.64457 5.91055 0 10.5 0C15.0895 0 19.0642 2.64457 21 6.5C19.0642 10.3554 15.0895 13 10.5 13C5.91055 13 1.93582 10.3554 0 6.5ZM10.5 9.75C10.9387 9.75 11.3732 9.66594 11.7785 9.50261C12.1838 9.33928 12.5521 9.09989 12.8624 8.7981C13.1726 8.49631 13.4187 8.13803 13.5866 7.74372C13.7545 7.34941 13.8409 6.9268 13.8409 6.5C13.8409 6.0732 13.7545 5.65059 13.5866 5.25628C13.4187 4.86197 13.1726 4.50369 12.8624 4.2019C12.5521 3.90011 12.1838 3.66072 11.7785 3.49739C11.3732 3.33406 10.9387 3.25 10.5 3.25C9.61394 3.25 8.76416 3.59241 8.13762 4.2019C7.51108 4.8114 7.15909 5.63805 7.15909 6.5C7.15909 7.36195 7.51108 8.1886 8.13762 8.7981C8.76416 9.40759 9.61394 9.75 10.5 9.75Z" fill="#7A7A7A"/>
</svg>
