<svg width="21" height="15" viewBox="0 0 21 15" fill="none" xmlns="http://www.w3.org/2000/svg">
<path fill-rule="evenodd" clip-rule="evenodd" d="M17.1074 11.4802L20.1333 14.1174L19.1215 15L2.92091 0.882646L3.93273 0L6.54818 2.27774C7.81319 1.87026 9.15135 1.66237 10.5 1.6638C15.0895 1.6638 19.0642 4.03305 21 7.48711C20.1092 9.08268 18.7702 10.4562 17.1074 11.4802ZM9.37745 4.74433L13.6471 8.46542C13.8601 7.94618 13.8996 7.3849 13.7609 6.84689C13.6222 6.30888 13.311 5.81625 12.8636 5.42634C12.4162 5.03642 11.851 4.76524 11.2336 4.64436C10.6163 4.52348 9.97229 4.55785 9.3765 4.7435L9.37745 4.74433ZM14.4528 12.6973C13.1874 13.1046 11.8489 13.3122 10.5 13.3104C5.91055 13.3104 1.93582 10.9412 0 7.48711C0.890847 5.89153 2.22983 4.51798 3.89264 3.49398L7.35286 6.50879C7.13985 7.02803 7.1004 7.58931 7.23911 8.12732C7.37782 8.66533 7.68897 9.15796 8.13637 9.54787C8.58377 9.93779 9.14903 10.209 9.76636 10.3299C10.3837 10.4507 11.0277 10.4164 11.6235 10.2307L14.4528 12.6965V12.6973Z" fill="#7A7A7A"/>
</svg>
