<svg width="current" height="current" viewBox="0 0 22 21" fill="current" xmlns="http://www.w3.org/2000/svg">
<path d="M15.3568 1.72925H6.64216C5.14567 1.72953 3.71057 2.32422 2.65249 3.3825C1.59441 4.44078 1 5.876 1 7.37249V16.3076C1 18.5509 3.73838 19.6428 5.28324 18.0168L8.50054 14.6287H13.4995L16.6076 18.3692C18.093 20.1574 21 19.1065 21 16.7833V7.37141C20.9997 5.8751 20.4052 4.44016 19.3471 3.38212C18.2891 2.32407 16.8531 1.72953 15.3568 1.72925ZM6.82378 6.59736V10.9217V6.59736ZM4.66162 8.75952H8.98595H4.66162Z" fill="#38C958"/>
<path d="M6.82378 6.59736V10.9217M4.66162 8.75952H8.98595M15.3568 1.72925H6.64216C5.14567 1.72953 3.71057 2.32422 2.65249 3.3825C1.59441 4.44078 1 5.876 1 7.37249V16.3076C1 18.5509 3.73838 19.6428 5.28324 18.0168L8.50054 14.6287H13.4995L16.6076 18.3692C18.093 20.1574 21 19.1065 21 16.7833V7.37141C20.9997 5.8751 20.4052 4.44016 19.3471 3.38212C18.2891 2.32407 16.8531 1.72953 15.3568 1.72925Z" stroke="#141517" stroke-width="1.5" stroke-linecap="round" stroke-linejoin="round"/>
<path d="M14.4578 7.67825C14.4578 7.99917 14.1977 8.25933 13.8767 8.25933C13.5558 8.25933 13.2957 7.99917 13.2957 7.67825C13.2957 7.35733 13.5558 7.09717 13.8767 7.09717C14.1977 7.09717 14.4578 7.35733 14.4578 7.67825Z" fill="#38C958" stroke="#141517"/>
<path d="M16.8362 10.0567C16.8362 10.3776 16.5761 10.6377 16.2552 10.6377C15.9342 10.6377 15.6741 10.3776 15.6741 10.0567C15.6741 9.73574 15.9342 9.47559 16.2552 9.47559C16.5761 9.47559 16.8362 9.73574 16.8362 10.0567Z" fill="#38C958" stroke="#141517"/>
</svg>
