<svg width="43" height="21" viewBox="0 0 43 21" fill="none" xmlns="http://www.w3.org/2000/svg">
<path d="M18.7232 13.6558C19.7639 14.0646 20.2842 15.2598 19.6702 16.1942C18.7156 17.6469 17.4043 18.8548 15.8436 19.6986C13.6771 20.87 11.1641 21.2672 8.73284 20.8226C6.3016 20.3779 4.10251 19.119 2.51028 17.2603C0.918047 15.4015 0.0311863 13.058 0.000806578 10.6289C-0.0295731 8.19991 0.798408 5.83567 2.34367 3.93907C3.88894 2.04246 6.05587 0.730845 8.47526 0.227695C10.8947 -0.275455 13.4168 0.0609945 15.612 1.17972C17.1933 1.98562 18.5345 3.16155 19.5251 4.59084C20.1621 5.50987 19.6713 6.71773 18.6407 7.15169C17.6289 7.57777 16.4813 7.08156 15.7616 6.25238C15.2071 5.61346 14.5286 5.08055 13.7589 4.68825C12.39 3.99066 10.8173 3.78087 9.30871 4.09461C7.80008 4.40835 6.44887 5.22622 5.48531 6.40886C4.52174 7.59151 4.00545 9.06575 4.02439 10.5804C4.04334 12.095 4.59635 13.5564 5.58919 14.7154C6.58204 15.8744 7.9533 16.6595 9.46932 16.9367C10.9853 17.2139 12.5523 16.9663 13.9033 16.2358C14.6622 15.8255 15.3266 15.2771 15.8647 14.6259C16.5645 13.7788 17.7006 13.2541 18.7232 13.6558Z" fill="white"/>
<rect x="20.3461" y="4.29553" width="3.5226" height="11.9318" rx="1.7613" fill="#9568FF"/>
<rect x="25.5085" y="4.29553" width="3.5226" height="11.9318" rx="1.7613" fill="#9568FF"/>
<rect x="30.0028" y="4.29553" width="3.5226" height="11.9318" rx="1.7613" fill="#9568FF"/>
<path d="M35.1653 0.715942H38.6879V19.2387C38.6879 20.2114 37.8993 21 36.9266 21C35.9538 21 35.1653 20.2114 35.1653 19.2387V0.715942Z" fill="white"/>
<rect x="20.3461" y="3.46008" width="3.46021" height="22.654" rx="1.73011" transform="rotate(-90 20.3461 3.46008)" fill="white"/>
<rect x="21.1356" y="11.9913" width="3.46021" height="7.10593" transform="rotate(-90 21.1356 11.9913)" fill="#9568FF"/>
</svg>
