<svg width="current" height="current" viewBox="0 0 14 16" fill="currentColor" xmlns="http://www.w3.org/2000/svg">
<path d="M9.51995 0H6.4913C5.1193 0 4.03198 0 3.18187 0.1184C2.3061 0.24 1.59755 0.496 1.03911 1.0728C0.479886 1.6496 0.231777 2.3816 0.114333 3.2856C5.79486e-08 4.164 0 5.2864 0 6.7032V11.3736C0 12.58 0.715552 13.6136 1.7321 14.0472C1.67999 13.3192 1.67999 12.2992 1.67999 11.4496V7.4416C1.67999 6.4168 1.67999 5.5328 1.77177 4.8256C1.87055 4.0672 2.09299 3.3408 2.66387 2.7512C3.23476 2.1616 3.93864 1.932 4.67286 1.8296C5.3573 1.7352 6.21285 1.7352 7.20607 1.7352H9.59384C10.5863 1.7352 11.4403 1.7352 12.1255 1.8296C11.9202 1.29063 11.5619 0.82779 11.0971 0.501426C10.6323 0.175062 10.0827 0.000324658 9.51995 0Z" fill="current"/>
<path d="M2.80005 7.51775C2.80005 5.33696 2.80005 4.24656 3.45649 3.56896C4.11215 2.89136 5.16759 2.89136 7.28002 2.89136H9.52001C11.6317 2.89136 12.6879 2.89136 13.3443 3.56896C14.0008 4.24656 14 5.33696 14 7.51775V11.3738C14 13.5545 14 14.6449 13.3443 15.3225C12.6879 16.0001 11.6317 16.0001 9.52001 16.0001H7.28002C5.16837 16.0001 4.11215 16.0001 3.45649 15.3225C2.80005 14.6449 2.80005 13.5545 2.80005 11.3738V7.51775Z" fill="current"/>
</svg>
