<svg width="21" height="13" viewBox="0 0 21 13" fill="none" xmlns="http://www.w3.org/2000/svg">
<path fill-rule="evenodd" clip-rule="evenodd" d="M0 6.08333C1.93582 2.54919 5.91055 0.125 10.5 0.125C15.0895 0.125 19.0642 2.54919 21 6.08333C19.0642 9.61748 15.0895 12.0417 10.5 12.0417C5.91055 12.0417 1.93582 9.61748 0 6.08333ZM10.5 9.0625C10.9387 9.0625 11.3732 8.98544 11.7785 8.83572C12.1838 8.68601 12.5521 8.46656 12.8624 8.18992C13.1726 7.91328 13.4187 7.58486 13.5866 7.22341C13.7545 6.86196 13.8409 6.47456 13.8409 6.08333C13.8409 5.6921 13.7545 5.30471 13.5866 4.94326C13.4187 4.58181 13.1726 4.25339 12.8624 3.97674C12.5521 3.7001 12.1838 3.48066 11.7785 3.33094C11.3732 3.18122 10.9387 3.10417 10.5 3.10417C9.61394 3.10417 8.76416 3.41804 8.13762 3.97674C7.51108 4.53545 7.15909 5.29321 7.15909 6.08333C7.15909 6.87346 7.51108 7.63122 8.13762 8.18992C8.76416 8.74862 9.61394 9.0625 10.5 9.0625Z" fill="#7A7A7A"/>
</svg>
