<svg width="current" height="current" viewBox="0 0 16 16" fill="currentColor" xmlns="http://www.w3.org/2000/svg">
<path d="M1.88632 7.80143C1.55335 7.43001 1.28955 6.9879 1.11027 6.50085C0.930999 6.0138 0.839838 5.49156 0.842105 4.96455C0.842105 3.89867 1.21917 2.87645 1.89035 2.12275C2.56154 1.36906 3.47186 0.945643 4.42105 0.945643C5.75158 0.945643 6.91368 1.75888 7.52842 2.96928H8.47158C8.7841 2.35373 9.2363 1.84218 9.78214 1.48671C10.328 1.13124 10.948 0.944544 11.5789 0.945643C12.5281 0.945643 13.4385 1.36906 14.1096 2.12275C14.7808 2.87645 15.1579 3.89867 15.1579 4.96455C15.1579 6.07093 14.7368 7.09221 14.1137 7.80143L8 14.6572L1.88632 7.80143ZM14.7032 8.47282C15.5032 7.56502 16 6.33571 16 4.96455C16 3.64787 15.5342 2.38513 14.7051 1.4541C13.876 0.523064 12.7515 1.70704e-05 11.5789 1.70704e-05C10.1053 1.70704e-05 8.8 0.803799 8 2.05202C7.59166 1.41514 7.05398 0.896771 6.43156 0.539901C5.80914 0.183032 5.11991 -0.00204662 4.42105 1.70704e-05C3.24852 1.70704e-05 2.124 0.523064 1.2949 1.4541C0.465788 2.38513 0 3.64787 0 4.96455C0 6.33571 0.496842 7.56502 1.29684 8.47282L8 16L14.7032 8.47282Z" fill="#FF6161"/>
</svg>
