<svg width="current" height="current" viewBox="0 0 21 21" fill="currentColor" xmlns="http://www.w3.org/2000/svg">
<path fill-rule="evenodd" clip-rule="evenodd" d="M12.8184 2.9715C13.2944 3.1185 13.7494 3.3075 14.1834 3.5385L16.108 2.3835C16.3087 2.26313 16.5439 2.21325 16.7762 2.24179C17.0084 2.27032 17.2245 2.37563 17.3901 2.541L18.459 3.6099C18.6244 3.77549 18.7297 3.99157 18.7582 4.22384C18.7867 4.45611 18.7369 4.69126 18.6165 4.89195L17.4615 6.8166C17.6925 7.2506 17.8815 7.7056 18.0285 8.1816L20.2051 8.72655C20.4322 8.78343 20.6338 8.91455 20.7778 9.09908C20.9218 9.28361 21 9.51097 21 9.74505V11.2549C21 11.489 20.9218 11.7164 20.7778 11.9009C20.6338 12.0854 20.4322 12.2166 20.2051 12.2734L18.0285 12.8184C17.8815 13.2944 17.6925 13.7494 17.4615 14.1834L18.6165 16.108C18.7369 16.3087 18.7867 16.5439 18.7582 16.7762C18.7297 17.0084 18.6244 17.2245 18.459 17.3901L17.3901 18.459C17.2245 18.6244 17.0084 18.7297 16.7762 18.7582C16.5439 18.7867 16.3087 18.7369 16.108 18.6165L14.1834 17.4615C13.7494 17.6925 13.2944 17.8815 12.8184 18.0285L12.2734 20.2051C12.2166 20.4322 12.0854 20.6338 11.9009 20.7778C11.7164 20.9218 11.489 21 11.2549 21H9.74505C9.51097 21 9.28361 20.9218 9.09908 20.7778C8.91455 20.6338 8.78343 20.4322 8.72655 20.2051L8.1816 18.0285C7.70983 17.8827 7.25282 17.6929 6.8166 17.4615L4.89195 18.6165C4.69126 18.7369 4.45611 18.7867 4.22384 18.7582C3.99157 18.7297 3.77549 18.6244 3.6099 18.459L2.541 17.3901C2.37563 17.2245 2.27032 17.0084 2.24179 16.7762C2.21325 16.5439 2.26313 16.3087 2.3835 16.108L3.5385 14.1834C3.30712 13.7472 3.11729 13.2902 2.9715 12.8184L0.79485 12.2734C0.567965 12.2166 0.366553 12.0856 0.222561 11.9013C0.0785683 11.717 0.000240075 11.4899 0 11.256V9.7461C6.15346e-06 9.51202 0.0782273 9.28466 0.222238 9.10013C0.366249 8.9156 0.567791 8.78448 0.79485 8.7276L2.9715 8.18265C3.1185 7.70665 3.3075 7.25165 3.5385 6.81765L2.3835 4.893C2.26313 4.69231 2.21325 4.45716 2.24179 4.22489C2.27032 3.99262 2.37563 3.77654 2.541 3.61095L3.6099 2.541C3.77549 2.37563 3.99157 2.27032 4.22384 2.24179C4.45611 2.21325 4.69126 2.26313 4.89195 2.3835L6.8166 3.5385C7.2506 3.3075 7.7056 3.1185 8.1816 2.9715L8.72655 0.79485C8.78339 0.567965 8.91435 0.366553 9.09867 0.222561C9.28299 0.0785683 9.5101 0.000240075 9.744 0H11.2539C11.488 6.15346e-06 11.7153 0.0782273 11.8999 0.222238C12.0844 0.366249 12.2155 0.567791 12.2724 0.79485L12.8184 2.9715ZM10.5 14.7C11.6139 14.7 12.6822 14.2575 13.4698 13.4698C14.2575 12.6822 14.7 11.6139 14.7 10.5C14.7 9.38609 14.2575 8.3178 13.4698 7.53015C12.6822 6.7425 11.6139 6.3 10.5 6.3C9.38609 6.3 8.3178 6.7425 7.53015 7.53015C6.7425 8.3178 6.3 9.38609 6.3 10.5C6.3 11.6139 6.7425 12.6822 7.53015 13.4698C8.3178 14.2575 9.38609 14.7 10.5 14.7Z" fill="#A7A7A7"/>
</svg>
