<svg width="current" height="current" viewBox="0 0 14 15" fill="currentColor" xmlns="http://www.w3.org/2000/svg">
<path d="M11.9354 2.55908C11.2022 1.81924 10.3121 1.25355 9.33099 0.903792C8.34984 0.55403 7.30265 0.429129 6.26676 0.538313C3.05627 0.861986 0.414399 3.46887 0.0557338 6.67936C-0.425402 10.9221 2.85507 14.5 6.99284 14.5C8.31387 14.5 9.60779 14.1252 10.7243 13.419C11.8407 12.7129 12.7339 11.7045 13.3001 10.5109C13.58 9.92484 13.1601 9.25125 12.5128 9.25125C12.1891 9.25125 11.8829 9.4262 11.743 9.71489C11.2351 10.8075 10.3664 11.6919 9.28297 12.2193C8.19959 12.7466 6.96765 12.8847 5.79437 12.6104C3.85233 12.1818 2.28645 10.5984 1.8753 8.65639C1.70247 7.88855 1.70447 7.09167 1.88116 6.32471C2.05784 5.55775 2.4047 4.84032 2.89605 4.22549C3.38741 3.61067 4.01071 3.11417 4.71984 2.77272C5.42897 2.43128 6.20579 2.25363 6.99284 2.25291C8.44499 2.25291 9.73969 2.85651 10.6845 3.81004L9.36353 5.13097C8.81241 5.68209 9.19732 6.62687 9.97588 6.62687H13.1164C13.5975 6.62687 13.9912 6.23321 13.9912 5.75208V2.61157C13.9912 1.83301 13.0464 1.43935 12.4953 1.99047L11.9354 2.55908Z" fill="current"/>
</svg>
