<svg width="86" height="42" viewBox="0 0 86 42" fill="none" xmlns="http://www.w3.org/2000/svg">
<path d="M37.4465 27.3116C39.5278 28.1291 40.5684 30.5196 39.3404 32.3883C37.4312 35.2938 34.8085 37.7096 31.6872 39.3972C27.3541 41.7399 22.3282 42.5343 17.4657 41.6451C12.6032 40.7559 8.20502 38.238 5.02056 34.5205C1.83609 30.8031 0.0623726 26.116 0.00161316 21.2579C-0.0591462 16.3998 1.59682 11.6713 4.68734 7.87813C7.77787 4.08493 12.1117 1.46169 16.9505 0.45539C21.7893 -0.550911 26.8336 0.121989 31.2239 2.35943C34.3866 3.97124 37.069 6.32311 39.0503 9.18169C40.3243 11.0197 39.3426 13.4355 37.2815 14.3034C35.2577 15.1555 32.9625 14.1631 31.5233 12.5048C30.4142 11.2269 29.0572 10.1611 27.5177 9.3765C24.7801 7.98132 21.6347 7.56173 18.6174 8.18922C15.6002 8.81671 12.8977 10.4524 10.9706 12.8177C9.04349 15.183 8.0109 18.1315 8.04879 21.1608C8.08667 24.1901 9.19269 27.1127 11.1784 29.4308C13.1641 31.7489 15.9066 33.3189 18.9386 33.8734C21.9707 34.4279 25.1047 33.9325 27.8066 32.4717C29.3244 31.651 30.6532 30.5542 31.7293 29.2517C33.129 27.5577 35.4011 26.5082 37.4465 27.3116Z" fill="white"/>
<rect x="40.6921" y="8.59106" width="7.0452" height="23.8636" rx="3.5226" fill="#9568FF"/>
<rect x="51.017" y="8.59106" width="7.0452" height="23.8636" rx="3.5226" fill="#9568FF"/>
<rect x="60.0057" y="8.59106" width="7.0452" height="23.8636" rx="3.5226" fill="#9568FF"/>
<path d="M70.3306 1.43176H77.3758V38.4772C77.3758 40.4227 75.7986 41.9998 73.8532 41.9998C71.9077 41.9998 70.3306 40.4227 70.3306 38.4772V1.43176Z" fill="white"/>
<rect x="40.6921" y="6.92029" width="6.92043" height="45.3079" rx="3.46021" transform="rotate(-90 40.6921 6.92029)" fill="white"/>
<rect x="42.2712" y="23.9827" width="6.92043" height="14.2119" transform="rotate(-90 42.2712 23.9827)" fill="#9568FF"/>
</svg>
